<?xml version="1.0" encoding="iso-8859-1"?>
<!-- Uploaded to: SVG Repo, www.svgrepo.com, Generator: SVG Repo Mixer Tools -->
<svg fill="#000000" height="800px" width="800px" version="1.1" id="Layer_1" xmlns="http://www.w3.org/2000/svg" xmlns:xlink="http://www.w3.org/1999/xlink" 
	 viewBox="0 0 512 512" xml:space="preserve">
<g transform="translate(1)">
	<g>
		<g>
			<path d="M311.407,203.932c0,5.207,3.471,8.678,8.678,8.678c5.207,0,8.678-3.471,8.678-8.678s-3.471-8.678-8.678-8.678
				C314.878,195.254,311.407,198.725,311.407,203.932z"/>
			<path d="M432.898,30.373c5.207,0,8.678-3.471,8.678-8.678c0-5.207-3.471-8.678-8.678-8.678s-8.678,3.471-8.678,8.678
				C424.22,26.902,427.692,30.373,432.898,30.373z"/>
			<path d="M493.644,212.61c0-5.207-3.471-8.678-8.678-8.678c-5.207,0-8.678,3.471-8.678,8.678s3.471,8.678,8.678,8.678
				C490.173,221.288,493.644,217.817,493.644,212.61z"/>
			<path d="M25.034,73.763c5.207,0,8.678-3.471,8.678-8.678c0-5.207-3.471-8.678-8.678-8.678c-5.207,0-8.678,3.471-8.678,8.678
				C16.356,70.292,19.827,73.763,25.034,73.763z"/>
			<path d="M320.085,99.797v43.39c0,3.471,1.736,6.075,5.207,7.81c0.868,0.868,2.603,0.868,3.471,0.868
				c1.736,0,4.339-0.868,6.075-1.736l69.424-60.746c3.471-3.471,3.471-8.678,0.868-12.149l-34.712-43.39
				c-1.736-2.603-5.207-3.471-7.81-3.471c-2.603,0-5.207,1.736-6.942,4.339l-34.712,60.746
				C320.085,97.193,320.085,98.061,320.085,99.797z M337.441,102.4l26.902-47.729l21.695,26.902l-48.597,42.522V102.4z"/>
			<path d="M498.851,266.414l-34.712-26.034c-3.471-2.603-6.942-2.603-10.414,0l-34.712,26.034
				c-2.603,2.603-4.339,5.207-3.471,8.678l8.678,52.068c0.868,3.471,4.339,6.942,8.678,6.942h52.068c4.339,0,7.81-3.471,8.678-6.942
				l8.678-52.068C502.322,271.62,501.454,268.149,498.851,266.414z M477.156,316.746h-37.315l-6.075-39.051l25.166-19.092
				l25.166,19.092L477.156,316.746z"/>
			<path d="M509.264,164.014L457.197,94.59c-0.868-1.736-3.471-3.471-6.075-3.471s-5.207,0.868-6.942,2.603l-78.102,78.102
				c-1.736,1.736-2.603,3.471-2.603,6.075v43.39c0,2.603,1.736,5.207,3.471,6.942c1.736,0.868,3.471,1.736,5.207,1.736
				c0.868,0,2.603,0,3.471,0l130.169-52.068c2.603-1.736,4.339-3.471,5.207-6.075C511,169.22,511,166.617,509.264,164.014z
				 M380.831,208.271V181.37l68.556-67.688l39.051,52.068L380.831,208.271z"/>
			<path d="M250.661,273.356c0-5.207-3.471-8.678-8.678-8.678H111.814c-5.207,0-8.678,3.471-8.678,8.678s3.471,8.678,8.678,8.678
				h130.169C247.19,282.034,250.661,278.563,250.661,273.356z"/>
			<path d="M302.729,316.746H163.881c-5.207,0-8.678,3.471-8.678,8.678c0,5.207,3.471,8.678,8.678,8.678h138.847
				c5.207,0,8.678-3.471,8.678-8.678C311.407,320.217,307.936,316.746,302.729,316.746z"/>
			<path d="M276.695,368.814h-52.068c-5.207,0-8.678,3.471-8.678,8.678c0,5.207,3.471,8.678,8.678,8.678h52.068
				c5.207,0,8.678-3.471,8.678-8.678C285.373,372.285,281.902,368.814,276.695,368.814z"/>
			<path d="M384.302,308.936l-30.373-15.62l-7.81-47.729c0-3.471-2.603-6.075-6.075-6.942l-59.878-14.753l21.695-51.2
				c0.868-1.736,0.868-4.339,0-6.942l-17.407-35.458c-0.026-0.054-0.052-0.108-0.079-0.162l-5.944-12.109l41.654-59.878
				c0.868-2.603,1.736-5.207,0.868-7.81s-2.603-4.339-5.207-5.207c-26.034-9.546-53.803-14.753-82.441-14.753
				c-96.767,0-179.919,58.813-215.641,142.604c-0.449,0.722-0.787,1.535-1.007,2.425C5.288,202.926-1,233.072-1,264.678
				c0,129.302,105.003,234.305,234.305,234.305c26.902,0,53.803-4.339,78.969-13.885c2.603,0,4.339-1.736,5.207-4.339l1.736-4.339
				c0.868-0.868,0.868-2.603,0.868-3.471v-64.217l46.861-23.43c1.736-0.868,3.471-2.603,4.339-5.207l17.356-60.746
				C389.508,315.01,387.773,310.671,384.302,308.936z M356.532,371.417l-48.597,24.298c-3.471,1.736-5.207,4.339-5.207,7.81v66.82
				c-22.563,7.81-45.993,11.281-69.424,11.281c-53.788,0-103.016-19.616-140.939-52.068h149.617c5.207,0,8.678-3.471,8.678-8.678
				c0-5.207-3.471-8.678-8.678-8.678H77.102c-0.895,0-1.734,0.109-2.518,0.306c-7.655-8.214-14.689-17.014-21.008-26.34h118.115
				c5.207,0,8.678-3.471,8.678-8.678c0-5.207-3.471-8.678-8.678-8.678H42.974c-6.049-11.026-11.173-22.629-15.256-34.712h20.747
				c5.207,0,8.678-3.471,8.678-8.678c0-5.207-3.471-8.678-8.678-8.678H22.67c-2.776-11.253-4.68-22.846-5.621-34.712h31.416
				c5.207,0,8.678-3.471,8.678-8.678s-3.471-8.678-8.678-8.678H16.356c0-11.816,0.96-23.407,2.781-34.712h83.999
				c5.207,0,8.678-3.471,8.678-8.678s-3.471-8.678-8.678-8.678H22.67c2.197-8.907,4.941-17.597,8.201-26.034h156.441
				c4.339,0,8.678-3.471,8.678-8.678s-3.471-8.678-8.678-8.678H38.47c4.445-9.048,9.492-17.748,15.107-26.034h29.6
				c5.207,0,8.678-3.471,8.678-8.678s-3.471-8.678-8.678-8.678H66.655c10.786-12.929,23.042-24.588,36.518-34.712h86.742
				c5.207,0,8.678-3.471,8.678-8.678s-3.471-8.678-8.678-8.678h-59.685c30.667-16.602,65.775-26.034,103.074-26.034
				c22.563,0,44.258,3.471,65.953,10.414l-38.183,54.671c-1.736,2.603-2.603,6.075-0.868,8.678l2.169,4.339H146.525
				c-5.207,0-8.678,3.471-8.678,8.678s3.471,8.678,8.678,8.678h124.529l13.451,26.902l-18.04,42.522h-85.228
				c-5.207,0-8.678,3.471-8.678,8.678s3.471,8.678,8.678,8.678h78.344c-0.078,1.337,0.124,2.835,0.626,4.339
				c1.736,1.736,3.471,3.471,6.075,4.339l64.217,15.62l7.81,46.861c0,2.603,1.736,5.207,4.339,6.075l28.637,13.885L356.532,371.417z
				"/>
			<path d="M484.098,426.088l-26.034-43.39c-2.603-3.471-6.075-5.207-9.546-4.339l-43.39,8.678c-2.603,0-5.207,1.736-6.075,4.339
				l-26.034,52.068c-1.736,2.603-0.868,6.075,0.868,8.678l26.034,34.712c1.736,2.603,4.339,3.471,6.942,3.471h0.868l69.424-8.678
				c4.339-0.868,7.81-4.339,7.81-8.678v-43.39C484.966,427.824,484.966,426.088,484.098,426.088z M467.61,465.139l-56.407,6.942
				l-19.959-26.034l21.695-43.39l32.976-6.942l21.695,36.447V465.139z"/>
		</g>
	</g>
</g>
</svg>